<?xml version="1.0" standalone="no"?>
<!DOCTYPE svg PUBLIC "-//W3C//DTD SVG 20010904//EN"
 "http://www.w3.org/TR/2001/REC-SVG-20010904/DTD/svg10.dtd">
<svg version="1.0" xmlns="http://www.w3.org/2000/svg"
 width="260.000000pt" height="260.000000pt" viewBox="0 0 260.000000 260.000000"
 preserveAspectRatio="xMidYMid meet">
<metadata>
Created by potrace 1.11, written by Peter Selinger 2001-2013
</metadata>
<g transform="translate(0.000000,260.000000) scale(0.100000,-0.100000)"
fill="#000000" stroke="none">
<path d="M1028 2427 c-13 -14 -32 -42 -43 -64 -10 -21 -34 -62 -52 -91 -18
-29 -33 -54 -33 -57 0 -3 -13 -26 -29 -52 -43 -74 -118 -203 -371 -643 -128
-223 -256 -445 -285 -495 -29 -49 -76 -130 -104 -179 -76 -131 -77 -130 97
-134 78 -1 142 -5 142 -9 0 -3 -32 -62 -72 -132 -39 -69 -88 -155 -108 -191
-20 -36 -53 -94 -73 -128 -40 -70 -46 -97 -21 -106 29 -11 1944 -7 1965 4 10
6 19 15 19 19 0 5 -29 58 -64 117 -35 60 -66 116 -68 124 -3 12 38 14 287 16
160 1 297 2 306 3 35 2 29 34 -23 125 -74 129 -546 948 -557 966 -11 18 -163
281 -205 354 -15 28 -60 104 -98 169 -83 140 -97 146 -142 64 -15 -28 -46 -83
-68 -120 l-40 -69 -24 36 c-13 19 -24 37 -24 40 0 3 -15 29 -33 58 -19 29 -36
60 -40 68 -17 41 -194 324 -204 327 -7 3 -23 -7 -35 -20z"/>
</g>
</svg>
